<svg xmlns="http://www.w3.org/2000/svg" width="512" height="512">
  <path fill="none" d="M0 .00001144h512v512H0z"/>
  <path d="M63.999993 85.333332c0-11.73333315 9.59999895-21.333333 21.333331-21.333333h42.666662V21.333333H85.333324c-35.19999615 0-63.999993 28.79999955-63.999993 63.999999v42.666666h42.666662V85.333332zM426.66662 63.999999c11.73333205 0 21.333331 9.59999985 21.333331 21.333333v42.666666h42.666662V85.333332c0-35.19999945-28.79999685-63.999999-63.999993-63.999999h-42.666662v42.666666h42.666662zM85.333324 447.999993c-11.73333205 0-21.333331-9.59999985-21.333331-21.333333v-42.666666H21.333331v42.666666c0 35.19999945 28.79999685 63.999999 63.999993 63.999999h42.666662v-42.666666H85.333324zM426.66662 447.999993c11.73333205 0 21.333331-9.59999985 21.333331-21.333333v-42.666666h42.666662v42.666666c0 35.19999945-28.79999685 63.999999-63.999993 63.999999h-42.666662v-42.666666h42.666662zM389.33329075 162.1333308l-117.3333205-67.83999894c-9.81333226-5.75999991-22.18666424-5.75999991-31.9999965 0l-117.3333205 67.83999894c-9.81333226 5.75999991-15.99999825 16.21333308-15.99999825 27.7333329v135.46666455c0 11.51999982 6.18666599 21.97333299 15.99999825 27.7333329l117.3333205 67.83999894c9.81333226 5.75999991 22.18666424 5.75999991 31.9999965 0l117.3333205-67.83999894c9.81333226-5.75999991 15.99999825-16.21333308 15.99999825-27.7333329V189.8666637c0-11.51999982-6.18666599-21.97333299-15.99999825-27.7333329zM149.333317 319.14666168v-98.55999846l85.333324 49.49333256v98.34666513l-85.333324-49.27999923zm106.666655-85.97333199l-85.333324-49.49333256 85.333324-49.27999923 85.333324 49.27999923-85.333324 49.49333256zm21.333331 135.25333122v-98.34666513l85.333324-49.49333256v98.55999846l-85.333324 49.27999923z"/>
</svg>
